<svg width="24" height="24" viewBox="0 0 24 24" fill="none" xmlns="http://www.w3.org/2000/svg">
<path d="M13.8351 2.66602C13.8351 1.65257 13.0135 0.831016 12.0001 0.831016C10.9866 0.831016 10.1651 1.65257 10.1651 2.66602H13.8351ZM10.1651 21.3327C10.1651 22.3461 10.9866 23.1677 12.0001 23.1677C13.0135 23.1677 13.8351 22.3461 13.8351 21.3327H10.1651ZM2.66675 10.1643C1.65331 10.1643 0.831748 10.9859 0.831748 11.9993C0.831748 13.0128 1.65331 13.8343 2.66675 13.8343V10.1643ZM21.3334 13.8343C22.3469 13.8343 23.1684 13.0128 23.1684 11.9993C23.1684 10.9859 22.3469 10.1643 21.3334 10.1643V13.8343ZM10.1651 2.66602V21.3327H13.8351V2.66602H10.1651ZM2.66675 13.8343H21.3334V10.1643H2.66675V13.8343Z" fill="#26001F"/>
</svg>
