<svg width="32" height="32" viewBox="0 0 32 32" fill="none" xmlns="http://www.w3.org/2000/svg">
<path d="M25.3326 17.5C26.161 17.5 26.8326 16.8284 26.8326 16C26.8326 15.1716 26.161 14.5 25.3326 14.5V17.5ZM7.99927 14.5C7.17084 14.5 6.49927 15.1716 6.49927 16C6.49927 16.8284 7.17084 17.5 7.99927 17.5V14.5ZM13.6054 25.0607C14.1911 25.6464 15.1409 25.6464 15.7267 25.0607C16.3125 24.4749 16.3125 23.5251 15.7267 22.9393L13.6054 25.0607ZM6.66602 16L5.60536 14.9393C5.01957 15.5251 5.01957 16.4749 5.60536 17.0607L6.66602 16ZM15.7267 9.06066C16.3125 8.47487 16.3125 7.52513 15.7267 6.93934C15.1409 6.35355 14.1911 6.35355 13.6054 6.93934L15.7267 9.06066ZM25.3326 14.5H7.99927V17.5H25.3326V14.5ZM15.7267 22.9393L7.72668 14.9393L5.60536 17.0607L13.6054 25.0607L15.7267 22.9393ZM7.72668 17.0607L15.7267 9.06066L13.6054 6.93934L5.60536 14.9393L7.72668 17.0607Z" fill="#FFCAF7"/>
</svg>
