<svg width="32" height="32" viewBox="0 0 32 32" fill="none" xmlns="http://www.w3.org/2000/svg">
<path d="M6.66602 14.5C5.83759 14.5 5.16602 15.1716 5.16602 16C5.16602 16.8284 5.83759 17.5 6.66602 17.5V14.5ZM23.9993 17.5C24.8278 17.5 25.4993 16.8284 25.4993 16C25.4993 15.1716 24.8278 14.5 23.9993 14.5V17.5ZM16.2719 22.9393C15.6862 23.5251 15.6862 24.4749 16.2719 25.0607C16.8577 25.6464 17.8075 25.6464 18.3933 25.0607L16.2719 22.9393ZM25.3326 16L26.3933 17.0607C26.979 16.4749 26.979 15.5251 26.3933 14.9393L25.3326 16ZM18.3933 6.93934C17.8075 6.35355 16.8577 6.35355 16.2719 6.93934C15.6862 7.52513 15.6862 8.47487 16.2719 9.06066L18.3933 6.93934ZM6.66602 17.5H23.9993V14.5H6.66602V17.5ZM18.3933 25.0607L26.3933 17.0607L24.2719 14.9393L16.2719 22.9393L18.3933 25.0607ZM26.3933 14.9393L18.3933 6.93934L16.2719 9.06066L24.2719 17.0607L26.3933 14.9393Z" fill="#FFCAF7"/>
</svg>
