<svg width="32" height="32" viewBox="0 0 32 32" fill="none" xmlns="http://www.w3.org/2000/svg">
<path d="M14.5 25.3331C14.5 26.1615 15.1716 26.8331 16 26.8331C16.8284 26.8331 17.5 26.1615 17.5 25.3331H14.5ZM17.5 7.99976C17.5 7.17133 16.8284 6.49976 16 6.49976C15.1716 6.49976 14.5 7.17133 14.5 7.99976H17.5ZM22.9393 15.7272C23.5251 16.313 24.4749 16.313 25.0607 15.7272C25.6464 15.1414 25.6464 14.1916 25.0607 13.6058L22.9393 15.7272ZM16 6.6665L17.0607 5.60584C16.4749 5.02006 15.5251 5.02006 14.9393 5.60584L16 6.6665ZM6.93934 13.6058C6.35355 14.1916 6.35355 15.1414 6.93934 15.7272C7.52513 16.313 8.47487 16.313 9.06066 15.7272L6.93934 13.6058ZM17.5 25.3331V7.99976H14.5V25.3331H17.5ZM25.0607 13.6058L17.0607 5.60584L14.9393 7.72716L22.9393 15.7272L25.0607 13.6058ZM14.9393 5.60584L6.93934 13.6058L9.06066 15.7272L17.0607 7.72716L14.9393 5.60584Z" fill="#FFCAF7"/>
</svg>
