<svg width="22" height="20" viewBox="0 0 22 20" fill="none" xmlns="http://www.w3.org/2000/svg">
<path d="M20.3333 11.5C21.1617 11.5 21.8333 10.8284 21.8333 10C21.8333 9.17157 21.1617 8.5 20.3333 8.5V11.5ZM2.99992 8.5C2.17149 8.5 1.49992 9.17157 1.49992 10C1.49992 10.8284 2.17149 11.5 2.99992 11.5V8.5ZM10.7273 3.06066C11.3131 2.47487 11.3131 1.52513 10.7273 0.939341C10.1415 0.353554 9.19179 0.353554 8.60601 0.939341L10.7273 3.06066ZM1.66667 10L0.606007 8.93934C0.0202198 9.52513 0.0202198 10.4749 0.606007 11.0607L1.66667 10ZM8.60601 19.0607C9.19179 19.6464 10.1415 19.6464 10.7273 19.0607C11.3131 18.4749 11.3131 17.5251 10.7273 16.9393L8.60601 19.0607ZM20.3333 8.5L2.99992 8.5V11.5L20.3333 11.5V8.5ZM8.60601 0.939341L0.606007 8.93934L2.72733 11.0607L10.7273 3.06066L8.60601 0.939341ZM0.606007 11.0607L8.60601 19.0607L10.7273 16.9393L2.72733 8.93934L0.606007 11.0607Z" fill="#FFCAF7"/>
</svg>
