<svg width="24" height="24" viewBox="0 0 24 24" fill="none" xmlns="http://www.w3.org/2000/svg">
<path d="M18.0893 7.08958C18.4148 6.76414 18.4148 6.23651 18.0893 5.91107C17.7639 5.58563 17.2363 5.58563 16.9108 5.91107L12.0001 10.8218L7.08934 5.91107C6.7639 5.58563 6.23626 5.58563 5.91083 5.91107C5.58539 6.23651 5.58539 6.76414 5.91083 7.08958L10.8216 12.0003L5.91083 16.9111C5.58539 17.2365 5.58539 17.7641 5.91083 18.0896C6.23626 18.415 6.7639 18.415 7.08934 18.0896L12.0001 13.1788L16.9108 18.0896C17.2363 18.415 17.7639 18.415 18.0893 18.0896C18.4148 17.7641 18.4148 17.2365 18.0893 16.9111L13.1786 12.0003L18.0893 7.08958Z" fill="#26001F"/>
</svg>
