<svg width="32" height="32" viewBox="0 0 32 32" fill="none" xmlns="http://www.w3.org/2000/svg">
<path d="M10.698 8.10279C9.98137 7.38618 8.81951 7.38618 8.1029 8.10279C7.38629 8.81941 7.38629 9.98126 8.1029 10.6979L10.698 8.10279ZM21.3022 23.8972C22.0188 24.6138 23.1807 24.6138 23.8973 23.8972C24.6139 23.1806 24.6139 22.0187 23.8973 21.3021L21.3022 23.8972ZM8.1029 21.3021C7.38629 22.0187 7.38629 23.1806 8.10291 23.8972C8.81952 24.6138 9.98138 24.6138 10.698 23.8972L8.1029 21.3021ZM23.8973 10.6979C24.6139 9.98126 24.6139 8.8194 23.8973 8.10279C23.1807 7.38618 22.0188 7.38618 21.3022 8.10279L23.8973 10.6979ZM8.1029 10.6979L21.3022 23.8972L23.8973 21.3021L10.698 8.10279L8.1029 10.6979ZM10.698 23.8972L23.8973 10.6979L21.3022 8.10279L8.1029 21.3021L10.698 23.8972Z" fill="#FFCAF7"/>
</svg>
