<svg width="32" height="32" viewBox="0 0 32 32" fill="none" xmlns="http://www.w3.org/2000/svg">
<path d="M20 25.1626V23.1626C20 22.1017 19.5786 21.0843 18.8284 20.3342C18.0783 19.584 17.0609 19.1626 16 19.1626H9C7.93913 19.1626 6.92172 19.584 6.17157 20.3342C5.42143 21.0843 5 22.1017 5 23.1626V25.1626" stroke="#FFC9C9" stroke-width="3" stroke-linecap="round" stroke-linejoin="round"/>
<path d="M26.125 21V19C26.125 17.9391 25.7036 16.9217 24.9534 16.1716C24.2033 15.4214 23.1859 15 22.125 15" stroke="#FFC9C9" stroke-width="2" stroke-linecap="round" stroke-linejoin="round"/>
<path d="M12.5 15.1626C14.7091 15.1626 16.5 13.3717 16.5 11.1626C16.5 8.95346 14.7091 7.1626 12.5 7.1626C10.2909 7.1626 8.5 8.95346 8.5 11.1626C8.5 13.3717 10.2909 15.1626 12.5 15.1626Z" stroke="#FFC9C9" stroke-width="3" stroke-linecap="round" stroke-linejoin="round"/>
<path d="M19.125 12C20.7819 12 22.125 10.6569 22.125 9C22.125 7.34315 20.7819 6 19.125 6C17.4681 6 16.125 7.34315 16.125 9C16.125 10.6569 17.4681 12 19.125 12Z" stroke="#FFC9C9" stroke-width="2" stroke-linecap="round" stroke-linejoin="round"/>
</svg>
