<svg width="17" height="79" viewBox="0 0 17 79" fill="none" xmlns="http://www.w3.org/2000/svg">
<path d="M15.7277 6.92195C15.7566 10.651 12.7551 13.7061 9.02375 13.7457L7.18608 13.7652C3.45474 13.8048 0.406494 10.814 0.377658 7.085C0.348821 3.35599 3.3503 0.300899 7.08164 0.261267L8.91932 0.241751C12.6507 0.202119 15.6989 3.19295 15.7277 6.92195ZM8.17843 23.2622C12.3575 23.2178 15.7715 26.5675 15.8038 30.744L16.1163 71.1477C16.1486 75.3242 12.7869 78.7459 8.60782 78.7903C4.42872 78.8347 1.01471 75.485 0.982418 71.3085L0.669978 30.9048C0.637681 26.7283 3.99933 23.3066 8.17843 23.2622Z" fill="#FF5FE5"/>
</svg>
