<svg width="50" height="104" viewBox="0 0 50 104" fill="none" xmlns="http://www.w3.org/2000/svg">
<path d="M49.1796 38.8924C49.1918 43.5019 45.4524 47.2378 40.8336 47.2308L30.7985 47.2154L30.9213 93.7902C30.9359 99.3021 26.4645 103.769 20.9415 103.761C15.4341 103.752 10.9635 99.2958 10.949 93.7995L10.826 47.1848L8.46118 47.1812C3.85539 47.1742 0.11671 43.4471 0.104583 38.8506C0.0924215 34.241 3.83176 30.5051 8.45061 30.5122L10.7821 30.5158L10.7682 25.2444C10.7453 16.6011 13.3441 10.2889 18.5645 6.30778C23.7846 2.23163 30.8171 0.20032 39.662 0.213863L40.3452 0.214911C45.1708 0.222302 49.0879 4.12721 49.1006 8.94306C49.1122 13.3335 45.5505 16.8919 41.1512 16.8851L39.9913 16.8834C33.8094 16.8739 30.7267 20.0035 30.7432 26.2722L30.7545 30.5464L40.823 30.5618C45.4288 30.5688 49.1675 34.2959 49.1796 38.8924Z" fill="#FF5FE5"/>
</svg>
