<svg width="49" height="58" viewBox="0 0 49 58" fill="none" xmlns="http://www.w3.org/2000/svg">
<path d="M44.1095 9.00276C46.809 12.7137 43.0832 16.9365 38.5055 16.8586C34.9138 16.7975 31.7273 13.649 28.3299 12.4749C27.0332 12.0267 25.4318 11.7864 23.5259 11.754C18.2048 11.6635 15.539 13.1644 15.5287 16.2569C15.5242 17.5923 15.9466 18.5835 16.7959 19.2305C17.7163 19.8084 19.24 20.3264 21.3671 20.7843L31.2594 22.4286C42.8891 24.3836 48.6874 30.281 48.6545 40.1206C48.6382 44.9701 46.4959 49.0806 42.2275 52.452C37.959 55.8235 31.9936 57.444 24.3312 57.3137C16.2431 57.1761 10.076 55.4545 5.82994 52.1491C3.8188 50.5575 2.22022 48.6711 1.03421 46.4901C-1.11511 42.5376 2.59388 38.4935 7.08077 38.5699C10.7428 38.6322 13.5643 41.9131 16.5911 43.9844C18.4005 45.2226 20.9578 45.8698 24.2629 45.926C30.5773 46.0334 33.7411 44.1192 33.7543 40.1834C33.7601 38.4263 33.1614 37.1158 31.9581 36.2519C30.7551 35.3177 28.7354 34.5805 25.8991 34.0402L15.2625 32.1724C5.47777 30.1784 0.599056 25.1051 0.626351 16.9522C0.643058 11.9621 2.60778 7.91891 6.52053 4.82256C10.5042 1.72742 16.3273 0.245029 23.9897 0.375387C30.7298 0.490052 36.1169 2.05774 40.1511 5.07842C41.7352 6.24451 43.0546 7.55262 44.1095 9.00276Z" fill="#FF5FE5"/>
</svg>
