<svg width="53" height="59" viewBox="0 0 53 59" fill="none" xmlns="http://www.w3.org/2000/svg">
<path d="M42.5306 58.1201C39.9199 58.0182 37.8797 55.8299 37.9539 53.2113L35.1742 53.1028C31.566 57.0472 26.3763 58.8872 19.6051 58.623C13.6179 58.3894 8.92787 56.4504 5.53486 52.8062C2.14388 49.0904 0.521498 44.6553 0.667687 39.5008C0.807785 34.5611 2.78278 30.338 6.59266 26.8315C10.4025 23.325 16.0494 21.7178 23.5334 22.0099L38.1805 22.5815L38.2201 21.1855C38.3825 15.4583 35.2207 12.4681 28.7346 12.215C26.6934 12.1353 24.9794 12.3148 23.5924 12.7534C19.7934 13.9548 16.2304 17.6397 12.2518 17.4845C7.93769 17.3161 4.36377 13.3845 6.68801 9.73298C7.85126 7.90547 9.45312 6.32262 11.4936 4.98442C15.9307 2.00413 21.5349 0.646101 28.306 0.910342C36.1463 1.21631 42.1927 3.13648 46.445 6.67089C50.7687 10.2081 52.83 15.5204 52.629 22.6078L51.8103 51.4751C51.701 55.3272 48.4739 58.352 44.6335 58.2022L42.5306 58.1201ZM25.1819 46.9077C28.817 47.0495 31.8053 46.0911 34.1471 44.0324C36.4888 41.9737 37.7084 39.2262 37.8059 35.7899L37.9033 32.3536L26.1429 31.8946C19.3004 31.6276 15.8091 33.9639 15.669 38.9037C15.5249 43.9866 18.6958 46.6546 25.1819 46.9077Z" fill="#FF5FE5"/>
</svg>
