<svg width="32" height="32" viewBox="0 0 32 32" fill="none" xmlns="http://www.w3.org/2000/svg">
<path d="M24.2969 13.3335L7.70435 13.3335C6.39524 13.3335 5.33398 14.5274 5.33398 16.0002L5.33398 25.3335C5.33398 26.8063 6.39523 28.0002 7.70435 28.0002L24.2969 28.0002C25.6061 28.0002 26.6673 26.8063 26.6673 25.3335L26.6673 16.0002C26.6673 14.5274 25.6061 13.3335 24.2969 13.3335Z" stroke="#FFCAF7" stroke-width="3" stroke-linecap="round" stroke-linejoin="round"/>
<path d="M10.666 13.3332L10.666 8.59243C10.666 7.02078 11.2279 5.51349 12.2281 4.40217C13.2283 3.29084 14.5849 2.6665 15.9993 2.6665C17.4138 2.66651 18.7704 3.29084 19.7706 4.40217C20.7708 5.5135 21.3327 7.02078 21.3327 8.59243L21.3327 13.3332" stroke="#FFCAF7" stroke-width="3" stroke-linecap="round" stroke-linejoin="round"/>
</svg>
