<svg width="32" height="32" viewBox="0 0 32 32" fill="none" xmlns="http://www.w3.org/2000/svg">
<path d="M23 14L9 14C7.89543 14 7 14.9768 7 16.1818L7 23.8182C7 25.0232 7.89543 26 9 26L23 26C24.1046 26 25 25.0232 25 23.8182L25 16.1818C25 14.9768 24.1046 14 23 14Z" stroke="#FFCAF7" stroke-width="3" stroke-linecap="round" stroke-linejoin="round"/>
<path d="M12 14L12 10C12 8.67392 12.4214 7.40215 13.1716 6.46447C13.9217 5.52678 14.9391 5 16 5C17.0609 5 18.0783 5.52679 18.8284 6.46447C19.5786 7.40215 20 8.67392 20 10L20 14" stroke="#FFCAF7" stroke-width="3" stroke-linecap="round" stroke-linejoin="round"/>
</svg>
