<svg width="24" height="24" viewBox="0 0 24 24" fill="none" xmlns="http://www.w3.org/2000/svg">
<path d="M18.2222 10L5.77778 10C4.79594 10 4 10.8954 4 12L4 19C4 20.1046 4.79594 21 5.77778 21L18.2222 21C19.2041 21 20 20.1046 20 19L20 12C20 10.8954 19.2041 10 18.2222 10Z" stroke="#FFCAF7" stroke-width="3" stroke-linecap="round" stroke-linejoin="round"/>
<path d="M8 10L8 6.44444C8 5.2657 8.42143 4.13524 9.17157 3.30175C9.92172 2.46825 10.9391 2 12 2C13.0609 2 14.0783 2.46825 14.8284 3.30175C15.5786 4.13524 16 5.26571 16 6.44445L16 10" stroke="#FFCAF7" stroke-width="3" stroke-linecap="round" stroke-linejoin="round"/>
</svg>
