<svg width="32" height="32" viewBox="0 0 32 32" fill="none" xmlns="http://www.w3.org/2000/svg">
<path fill-rule="evenodd" clip-rule="evenodd" d="M13.333 15.9998C13.333 17.4726 14.5269 18.6665 15.9997 18.6665C17.4724 18.6665 18.6663 17.4726 18.6663 15.9998C18.6663 14.5271 17.4724 13.3332 15.9997 13.3332C14.5269 13.3332 13.333 14.5271 13.333 15.9998Z" fill="#FFCAF7"/>
<path fill-rule="evenodd" clip-rule="evenodd" d="M22.667 15.9998C22.667 17.4726 23.8609 18.6665 25.3337 18.6665C26.8064 18.6665 28.0003 17.4726 28.0003 15.9998C28.0003 14.5271 26.8064 13.3332 25.3337 13.3332C23.8609 13.3332 22.667 14.5271 22.667 15.9998Z" fill="#FFCAF7"/>
<path fill-rule="evenodd" clip-rule="evenodd" d="M4 15.9998C4 17.4726 5.19391 18.6665 6.66667 18.6665C8.13943 18.6665 9.33333 17.4726 9.33333 15.9998C9.33333 14.5271 8.13943 13.3332 6.66667 13.3332C5.19391 13.3332 4 14.5271 4 15.9998Z" fill="#FFCAF7"/>
</svg>
