<svg width="32" height="32" viewBox="0 0 32 32" fill="none" xmlns="http://www.w3.org/2000/svg">
<path d="M17.8343 6.6665C17.8343 5.65306 17.0128 4.8315 15.9993 4.8315C14.9859 4.8315 14.1643 5.65306 14.1643 6.6665H17.8343ZM14.1643 25.3332C14.1643 26.3466 14.9859 27.1682 15.9993 27.1682C17.0128 27.1682 17.8343 26.3466 17.8343 25.3332H14.1643ZM6.66602 14.1648C5.65257 14.1648 4.83102 14.9864 4.83102 15.9998C4.83102 17.0133 5.65257 17.8348 6.66602 17.8348V14.1648ZM25.3327 17.8348C26.3461 17.8348 27.1677 17.0133 27.1677 15.9998C27.1677 14.9864 26.3461 14.1648 25.3327 14.1648V17.8348ZM14.1643 6.6665V25.3332H17.8343V6.6665H14.1643ZM6.66602 17.8348H25.3327V14.1648H6.66602V17.8348Z" fill="#FFCAF7"/>
</svg>
