<svg width="32" height="32" viewBox="0 0 32 32" fill="none" xmlns="http://www.w3.org/2000/svg">
<path fill-rule="evenodd" clip-rule="evenodd" d="M16.0001 27.3337C22.2593 27.3337 27.3334 22.2596 27.3334 16.0003C27.3334 9.7411 22.2593 4.66699 16.0001 4.66699C9.74085 4.66699 4.66675 9.7411 4.66675 16.0003C4.66675 22.2596 9.74085 27.3337 16.0001 27.3337ZM29.3334 16.0003C29.3334 23.3641 23.3639 29.3337 16.0001 29.3337C8.63628 29.3337 2.66675 23.3641 2.66675 16.0003C2.66675 8.63653 8.63628 2.66699 16.0001 2.66699C23.3639 2.66699 29.3334 8.63653 29.3334 16.0003ZM17.3336 22.6672C17.3336 23.4035 16.7366 24.0005 16.0002 24.0005C15.2639 24.0005 14.6669 23.4035 14.6669 22.6672C14.6669 21.9308 15.2639 21.3338 16.0002 21.3338C16.7366 21.3338 17.3336 21.9308 17.3336 22.6672ZM18.8937 16.6045L20.0937 15.5005C20.8537 14.8165 21.3337 13.8565 21.3337 12.8005C21.3337 10.1485 18.947 8.00049 16.0003 8.00049C13.5596 8.00049 11.503 9.47427 10.8688 11.4875C10.6475 12.1898 11.264 12.8005 12.0003 12.8005C12.7367 12.8005 13.3123 12.1554 13.7284 11.5479C14.1988 10.8609 15.0428 10.4005 16.0003 10.4005C17.467 10.4005 18.667 11.4805 18.667 12.8005C18.667 13.4605 18.3737 14.0605 17.8803 14.4925L16.227 16.0045C15.267 16.8805 14.667 18.0805 14.667 19.4005C14.667 19.7319 14.9356 20.0005 15.267 20.0005H16.0003C16.7367 20.0005 17.2961 19.3916 17.4789 18.6782C17.7114 17.7703 18.2117 17.2268 18.8937 16.6045Z" fill="#FFCAF7"/>
</svg>
