<svg width="32" height="32" viewBox="0 0 32 32" fill="none" xmlns="http://www.w3.org/2000/svg">
<path fill-rule="evenodd" clip-rule="evenodd" d="M15.9993 27.3332C22.2586 27.3332 27.3327 22.2591 27.3327 15.9998C27.3327 9.74061 22.2586 4.6665 15.9993 4.6665C9.74012 4.6665 4.66602 9.74061 4.66602 15.9998C4.66602 22.2591 9.74012 27.3332 15.9993 27.3332ZM29.3327 15.9998C29.3327 23.3636 23.3631 29.3332 15.9993 29.3332C8.63555 29.3332 2.66602 23.3636 2.66602 15.9998C2.66602 8.63604 8.63555 2.6665 15.9993 2.6665C23.3631 2.6665 29.3327 8.63604 29.3327 15.9998ZM17.3328 22.6667C17.3328 23.403 16.7359 24 15.9995 24C15.2631 24 14.6662 23.403 14.6662 22.6667C14.6662 21.9303 15.2631 21.3333 15.9995 21.3333C16.7359 21.3333 17.3328 21.9303 17.3328 22.6667ZM18.8929 16.604L20.0929 15.5C20.8529 14.816 21.3329 13.856 21.3329 12.8C21.3329 10.148 18.9463 8 15.9996 8C13.5588 8 11.5023 9.47378 10.8681 11.487C10.6468 12.1894 11.2632 12.8 11.9996 12.8C12.736 12.8 13.3115 12.1549 13.7276 11.5474C14.1981 10.8604 15.042 10.4 15.9996 10.4C17.4663 10.4 18.6663 11.48 18.6663 12.8C18.6663 13.46 18.3729 14.06 17.8796 14.492L16.2263 16.004C15.2663 16.88 14.6663 18.08 14.6663 19.4C14.6663 19.7314 14.9349 20 15.2663 20H15.9996C16.736 20 17.2954 19.3911 17.4781 18.6777C17.7107 17.7698 18.211 17.2263 18.8929 16.604Z" fill="#FFCAF7"/>
</svg>
