<svg width="32" height="32" viewBox="0 0 32 32" fill="none" xmlns="http://www.w3.org/2000/svg">
<path d="M22 6H10C9.46957 6 8.96086 6.21071 8.58579 6.58579C8.21071 6.96086 8 7.46957 8 8V24C8 24.5304 8.21071 25.0391 8.58579 25.4142C8.96086 25.7893 9.46957 26 10 26H22C22.5304 26 23.0391 25.7893 23.4142 25.4142C23.7893 25.0391 24 24.5304 24 24V8C24 7.46957 23.7893 6.96086 23.4142 6.58579C23.0391 6.21071 22.5304 6 22 6ZM22 24H10V8H22V24Z" fill="#FFCAF7"/>
<path d="M16 23C16.7911 23 17.5645 22.7654 18.2223 22.3259C18.8801 21.8864 19.3928 21.2616 19.6955 20.5307C19.9983 19.7998 20.0775 18.9956 19.9231 18.2196C19.7688 17.4437 19.3878 16.731 18.8284 16.1716C18.269 15.6122 17.5563 15.2312 16.7804 15.0769C16.0044 14.9225 15.2002 15.0017 14.4693 15.3045C13.7384 15.6072 13.1136 16.1199 12.6741 16.7777C12.2346 17.4355 12 18.2089 12 19C12 20.0609 12.4214 21.0783 13.1716 21.8284C13.9217 22.5786 14.9391 23 16 23ZM16 17C16.3956 17 16.7822 17.1173 17.1111 17.3371C17.44 17.5568 17.6964 17.8692 17.8478 18.2346C17.9991 18.6001 18.0387 19.0022 17.9616 19.3902C17.8844 19.7781 17.6939 20.1345 17.4142 20.4142C17.1345 20.6939 16.7781 20.8844 16.3902 20.9616C16.0022 21.0387 15.6001 20.9991 15.2346 20.8478C14.8692 20.6964 14.5568 20.44 14.3371 20.1111C14.1173 19.7822 14 19.3956 14 19C14 18.4696 14.2107 17.9609 14.5858 17.5858C14.9609 17.2107 15.4696 17 16 17V17Z" fill="#FFCAF7"/>
<path d="M16.0098 13C17.1143 13 18.0098 12.1046 18.0098 11C18.0098 9.89543 17.1143 9 16.0098 9C14.9052 9 14.0098 9.89543 14.0098 11C14.0098 12.1046 14.9052 13 16.0098 13Z" fill="#FFCAF7"/>
</svg>
